MetropolisNew-ThinItalic.ufo
<glyph name="hyphen" format="2">
  <advance width="377"/>
  <unicode hex="002D"/>
  <outline>
    <contour>
      <point x="317" y="254" type="line"/>
      <point x="325" y="290" type="line"/>
      <point x="66" y="290" type="line"/>
      <point x="58" y="254" type="line"/>
    </contour>
  </outline>
</glyph>
<glyph name="eight" format="2">
  <advance width="596"/>
  <unicode hex="0038"/>
  <outline>
    <contour>
      <point x="244" y="-12" type="curve" smooth="yes"/>
      <point x="372" y="-12"/>
      <point x="513" y="85"/>
      <point x="513" y="205" type="curve" smooth="yes"/>
      <point x="513" y="272"/>
      <point x="468" y="331"/>
      <point x="397" y="353" type="curve"/>
      <point x="494" y="383"/>
      <point x="567" y="467"/>
      <point x="567" y="547" type="curve" smooth="yes"/>
      <point x="567" y="632"/>
      <point x="491" y="699"/>
      <point x="386" y="699" type="curve" smooth="yes"/>
      <point x="260" y="699"/>
      <point x="138" y="601"/>
      <point x="138" y="493" type="curve" smooth="yes"/>
      <point x="138" y="432"/>
      <point x="178" y="377"/>
      <point x="238" y="355" type="curve"/>
      <point x="142" y="328"/>
      <point x="49" y="247"/>
      <point x="49" y="148" type="curve" smooth="yes"/>
      <point x="49" y="58"/>
      <point x="131" y="-12"/>
    </contour>
    <contour>
      <point x="246" y="24" type="curve" smooth="yes"/>
      <point x="152" y="24"/>
      <point x="85" y="81"/>
      <point x="85" y="152" type="curve" smooth="yes"/>
      <point x="85" y="254"/>
      <point x="196" y="328"/>
      <point x="315" y="331" type="curve"/>
      <point x="415" y="328"/>
      <point x="478" y="279"/>
      <point x="478" y="209" type="curve" smooth="yes"/>
      <point x="478" y="112"/>
      <point x="363" y="24"/>
    </contour>
    <contour>
      <point x="318" y="373" type="curve"/>
      <point x="229" y="378"/>
      <point x="172" y="425"/>
      <point x="172" y="489" type="curve" smooth="yes"/>
      <point x="172" y="581"/>
      <point x="279" y="663"/>
      <point x="384" y="663" type="curve" smooth="yes"/>
      <point x="469" y="663"/>
      <point x="531" y="610"/>
      <point x="531" y="543" type="curve" smooth="yes"/>
      <point x="531" y="450"/>
      <point x="429" y="379"/>
    </contour>
  </outline>
</glyph>
<glyph name="equal" format="2">
  <advance width="658"/>
  <unicode hex="003D"/>
  <outline>
    <contour>
      <point x="593" y="426" type="line"/>
      <point x="601" y="462" type="line"/>
      <point x="142" y="462" type="line"/>
      <point x="134" y="426" type="line"/>
    </contour>
    <contour>
      <point x="547" y="206" type="line"/>
      <point x="555" y="242" type="line"/>
      <point x="96" y="242" type="line"/>
      <point x="88" y="206" type="line"/>
    </contour>
  </outline>
</glyph>
<glyph name="X" format="2">
  <advance width="721"/>
  <unicode hex="0058"/>
  <outline>
    <contour>
      <point x="165" y="687" type="line"/>
      <point x="207" y="687" type="line"/>
      <point x="590" y="0" type="line"/>
      <point x="547" y="0" type="line"/>
    </contour>
    <contour>
      <point x="689" y="687" type="line"/>
      <point x="736" y="687" type="line"/>
      <point x="67" y="0" type="line"/>
      <point x="20" y="0" type="line"/>
    </contour>
  </outline>
</glyph>
<glyph name="bracketright" format="2">
  <advance width="379"/>
  <unicode hex="005D"/>
  <outline>
    <contour>
      <point x="212" y="-115" type="line"/>
      <point x="388" y="734" type="line"/>
      <point x="167" y="734" type="line"/>
      <point x="160" y="698" type="line"/>
      <point x="345" y="698" type="line"/>
      <point x="183" y="-79" type="line"/>
      <point x="-2" y="-79" type="line"/>
      <point x="-9" y="-115" type="line"/>
    </contour>
  </outline>
</glyph>
<glyph name="underscore" format="2">
  <advance width="715"/>
  <unicode hex="005F"/>
  <outline>
    <contour>
      <point x="575" y="-127" type="line"/>
      <point x="583" y="-91" type="line"/>
      <point x="-13" y="-91" type="line"/>
      <point x="-21" y="-127" type="line"/>
    </contour>
  </outline>
</glyph>
<glyph name="grave" format="2">
  <advance width="258"/>
  <unicode hex="0060"/>
  <anchor x="239" y="517" name="_top"/>
  <anchor x="277" y="704" name="top"/>
  <outline>
    <contour>
      <point x="278" y="576" type="line"/>
      <point x="182" y="718" type="line"/>
      <point x="140" y="709" type="line"/>
      <point x="231" y="576" type="line"/>
    </contour>
  </outline>
</glyph>
<glyph name="b" format="2">
  <advance width="590"/>
  <unicode hex="0062"/>
  <outline>
    <contour>
      <point x="254" y="-12" type="curve" smooth="yes"/>
      <point x="400" y="-12"/>
      <point x="546" y="153"/>
      <point x="546" y="318" type="curve" smooth="yes"/>
      <point x="546" y="442"/>
      <point x="469" y="529"/>
      <point x="361" y="529" type="curve" smooth="yes"/>
      <point x="198" y="529"/>
      <point x="60" y="374"/>
      <point x="60" y="190" type="curve" smooth="yes"/>
      <point x="60" y="63"/>
      <point x="132" y="-12"/>
    </contour>
    <contour>
      <point x="249" y="24" type="curve" smooth="yes"/>
      <point x="153" y="24"/>
      <point x="96" y="86"/>
      <point x="96" y="192" type="curve" smooth="yes"/>
      <point x="96" y="355"/>
      <point x="213" y="493"/>
      <point x="352" y="493" type="curve" smooth="yes"/>
      <point x="444" y="493"/>
      <point x="509" y="419"/>
      <point x="509" y="314" type="curve" smooth="yes"/>
      <point x="509" y="169"/>
      <point x="379" y="24"/>
    </contour>
    <contour>
      <point x="49" y="0" type="line"/>
      <point x="194" y="699" type="line"/>
      <point x="158" y="699" type="line"/>
      <point x="13" y="0" type="line"/>
    </contour>
  </outline>
</glyph>
<glyph name="k" format="2">
  <advance width="521"/>
  <unicode hex="006B"/>
  <anchor x="199" y="0" name="bottom"/>
  <outline>
    <contour>
      <point x="49" y="0" type="line"/>
      <point x="194" y="699" type="line"/>
      <point x="158" y="699" type="line"/>
      <point x="13" y="0" type="line"/>
    </contour>
    <contour>
      <point x="66" y="124" type="line"/>
      <point x="501" y="517" type="line"/>
      <point x="449" y="517" type="line"/>
      <point x="77" y="177" type="line"/>
    </contour>
    <contour>
      <point x="213" y="268" type="line"/>
      <point x="365" y="0" type="line"/>
      <point x="410" y="0" type="line"/>
      <point x="242" y="293" type="line"/>
    </contour>
  </outline>
</glyph>
<glyph name="l" format="2">
  <advance width="170"/>
  <unicode hex="006C"/>
  <anchor x="42" y="0" name="bottom"/>
  <anchor x="176" y="699" name="top"/>
  <outline>
    <contour>
      <point x="49" y="0" type="line"/>
      <point x="194" y="699" type="line"/>
      <point x="158" y="699" type="line"/>
      <point x="13" y="0" type="line"/>
    </contour>
  </outline>
</glyph>
<glyph name="section" format="2">
  <advance width="484"/>
  <unicode hex="00A7"/>
  <anchor x="254" y="0" name="bottom"/>
  <anchor x="362" y="517" name="top"/>
  <outline>
    <contour>
      <point x="376" y="192" type="line"/>
      <point x="426" y="214"/>
      <point x="459" y="265"/>
      <point x="459" y="318" type="curve" smooth="yes"/>
      <point x="459" y="378"/>
      <point x="402" y="430"/>
      <point x="317" y="448" type="curve"/>
      <point x="240" y="469"/>
      <point x="189" y="511"/>
      <point x="189" y="556" type="curve" smooth="yes"/>
      <point x="189" y="611"/>
      <point x="267" y="663"/>
      <point x="351" y="663" type="curve" smooth="yes"/>
      <point x="400" y="663"/>
      <point x="460" y="643"/>
      <point x="500" y="614" type="curve"/>
      <point x="526" y="640" type="line"/>
      <point x="483" y="675"/>
      <point x="413" y="699"/>
      <point x="354" y="699" type="curve" smooth="yes"/>
      <point x="258" y="699"/>
      <point x="153" y="636"/>
      <point x="153" y="546" type="curve" smooth="yes"/>
      <point x="153" y="488"/>
      <point x="211" y="437"/>
      <point x="299" y="418" type="curve"/>
      <point x="373" y="400"/>
      <point x="422" y="358"/>
      <point x="422" y="309" type="curve" smooth="yes"/>
      <point x="422" y="271"/>
      <point x="395" y="235"/>
      <point x="354" y="218" type="curve"/>
    </contour>
    <contour>
      <point x="198" y="-12" type="curve" smooth="yes"/>
      <point x="301" y="-12"/>
      <point x="411" y="53"/>
      <point x="411" y="148" type="curve" smooth="yes"/>
      <point x="411" y="208"/>
      <point x="354" y="260"/>
      <point x="269" y="278" type="curve"/>
      <point x="192" y="299"/>
      <point x="141" y="341"/>
      <point x="141" y="386" type="curve" smooth="yes"/>
      <point x="141" y="418"/>
      <point x="168" y="450"/>
      <point x="207" y="470" type="curve"/>
      <point x="198" y="503" type="line"/>
      <point x="145" y="476"/>
      <point x="105" y="431"/>
      <point x="105" y="376" type="curve" smooth="yes"/>
      <point x="105" y="318"/>
      <point x="163" y="267"/>
      <point x="251" y="248" type="curve"/>
      <point x="325" y="230"/>
      <point x="374" y="188"/>
      <point x="374" y="138" type="curve" smooth="yes"/>
      <point x="374" y="70"/>
      <point x="284" y="24"/>
      <point x="205" y="24" type="curve" smooth="yes"/>
      <point x="146" y="24"/>
      <point x="76" y="51"/>
      <point x="29" y="92" type="curve"/>
      <point x="4" y="66" type="line"/>
      <point x="50" y="19"/>
      <point x="128" y="-12"/>
    </contour>
  </outline>
</glyph>
<glyph name="ordfeminine" format="2">
  <advance width="316"/>
  <unicode hex="00AA"/>
  <anchor x="294" y="377" name="bottom"/>
  <anchor x="236" y="687" name="top"/>
  <outline>
    <contour>
      <point x="294" y="377" type="line"/>
      <point x="333" y="564"/>
      <point x="337" y="574"/>
      <point x="337" y="600" type="curve" smooth="yes"/>
      <point x="337" y="656"/>
      <point x="303" y="694"/>
      <point x="231" y="694" type="curve" smooth="yes"/>
      <point x="203" y="694"/>
      <point x="165" y="687"/>
      <point x="116" y="665" type="curve"/>
      <point x="129" y="627" type="line"/>
      <point x="160" y="642"/>
      <point x="194" y="656"/>
      <point x="227" y="656" type="curve" smooth="yes"/>
      <point x="278" y="656"/>
      <point x="293" y="628"/>
      <point x="293" y="596" type="curve" smooth="yes"/>
      <point x="293" y="577"/>
      <point x="291" y="576"/>
      <point x="249" y="377" type="curve"/>
    </contour>
    <contour>
      <point x="142" y="370" type="curve" smooth="yes"/>
      <point x="190" y="370"/>
      <point x="252" y="396"/>
      <point x="275" y="449" type="curve"/>
      <point x="269" y="476" type="line"/>
      <point x="249" y="432"/>
      <point x="194" y="409"/>
      <point x="152" y="409" type="curve" smooth="yes"/>
      <point x="114" y="409"/>
      <point x="89" y="426"/>
      <point x="89" y="455" type="curve" smooth="yes"/>
      <point x="89" y="500"/>
      <point x="140" y="534"/>
      <point x="192" y="534" type="curve" smooth="yes"/>
      <point x="233" y="534"/>
      <point x="269" y="528"/>
      <point x="300" y="516" type="curve"/>
      <point x="303" y="547" type="line"/>
      <point x="270" y="561"/>
      <point x="228" y="572"/>
      <point x="186" y="572" type="curve" smooth="yes"/>
      <point x="114" y="572"/>
      <point x="45" y="523"/>
      <point x="45" y="450" type="curve" smooth="yes"/>
      <point x="45" y="400"/>
      <point x="84" y="370"/>
    </contour>
  </outline>
</glyph>
<glyph name="logicalnot" format="2">
  <advance width="603"/>
  <unicode hex="00AC"/>
  <outline>
    <contour>
      <point x="115" y="366" type="line"/>
      <point x="108" y="334" type="line"/>
      <point x="493" y="334" type="line"/>
      <point x="455" y="153" type="line"/>
      <point x="488" y="153" type="line"/>
      <point x="533" y="366" type="line"/>
    </contour>
  </outline>
</glyph>
<glyph name="macron" format="2">
  <advance width="428"/>
  <unicode hex="00AF"/>
  <anchor x="266" y="517" name="_top"/>
  <anchor x="304" y="704" name="top"/>
  <outline>
    <contour>
      <point x="441" y="603" type="line"/>
      <point x="448" y="639" type="line"/>
      <point x="138" y="639" type="line"/>
      <point x="131" y="603" type="line"/>
    </contour>
  </outline>
</glyph>
<glyph name="plusminus" format="2">
  <advance width="593"/>
  <unicode hex="00B1"/>
  <outline>
    <contour>
      <point x="439" y="0" type="line"/>
      <point x="446" y="32" type="line"/>
      <point x="28" y="32" type="line"/>
      <point x="21" y="0" type="line"/>
    </contour>
    <contour>
      <point x="278" y="157" type="line"/>
      <point x="359" y="563" type="line"/>
      <point x="326" y="563" type="line"/>
      <point x="245" y="157" type="line"/>
    </contour>
    <contour>
      <point x="508" y="344" type="line"/>
      <point x="515" y="376" type="line"/>
      <point x="96" y="376" type="line"/>
      <point x="90" y="344" type="line"/>
    </contour>
  </outline>
</glyph>
<glyph name="two.superior" format="2">
  <advance width="348"/>
  <unicode hex="00B2"/>
  <outline>
    <contour>
      <point x="283" y="275" type="line"/>
      <point x="292" y="319" type="line"/>
      <point x="83" y="319" type="line"/>
      <point x="212" y="412" type="line"/>
      <point x="283" y="465"/>
      <point x="343" y="522"/>
      <point x="343" y="596" type="curve" smooth="yes"/>
      <point x="343" y="657"/>
      <point x="295" y="694"/>
      <point x="231" y="694" type="curve" smooth="yes"/>
      <point x="168" y="694"/>
      <point x="116" y="666"/>
      <point x="72" y="617" type="curve"/>
      <point x="101" y="587" type="line"/>
      <point x="137" y="625"/>
      <point x="178" y="652"/>
      <point x="227" y="652" type="curve" smooth="yes"/>
      <point x="265" y="652"/>
      <point x="296" y="631"/>
      <point x="296" y="592" type="curve" smooth="yes"/>
      <point x="296" y="538"/>
      <point x="241" y="486"/>
      <point x="183" y="444" type="curve" smooth="yes"/>
      <point x="6" y="314" type="line"/>
      <point x="-1" y="275" type="line"/>
    </contour>
  </outline>
</glyph>
<glyph name="acute" format="2">
  <advance width="258"/>
  <unicode hex="00B4"/>
  <anchor x="126" y="517" name="_top"/>
  <anchor x="164" y="704" name="top"/>
  <outline>
    <contour>
      <point x="161" y="576" type="line"/>
      <point x="306" y="709" type="line"/>
      <point x="266" y="718" type="line"/>
      <point x="112" y="576" type="line"/>
    </contour>
  </outline>
  <guideline angle="0" x="0" y="374"/>
</glyph>
<glyph name="Hbar" format="2">
  <advance width="715"/>
  <unicode hex="0126"/>
  <anchor x="529" y="874" name="top"/>
  <anchor x="358" y="487" name="_top"/>
  <outline>
    <component base="H"/>
    <contour>
      <point x="741" y="573" type="line"/>
      <point x="749" y="609" type="line"/>
      <point x="94" y="609" type="line"/>
      <point x="86" y="573" type="line"/>
    </contour>
  </outline>
</glyph>
<glyph name="dotlessi" format="2">
  <advance width="168"/>
  <unicode hex="0131"/>
  <anchor x="48" y="0" name="bottom"/>
  <anchor x="138" y="517" name="top"/>
  <outline>
    <contour>
      <point x="48" y="0" type="line"/>
      <point x="156" y="517" type="line"/>
      <point x="120" y="517" type="line"/>
      <point x="12" y="0" type="line"/>
    </contour>
  </outline>
  <guideline angle="0" x="0" y="0"/>
</glyph>
<glyph name="kgreenlandic" format="2">
  <advance width="521"/>
  <unicode hex="0138"/>
  <anchor x="199" y="0" name="bottom"/>
  <outline>
    <contour>
      <point x="49" y="0" type="line"/>
      <point x="156" y="517" type="line"/>
      <point x="120" y="517" type="line"/>
      <point x="13" y="0" type="line"/>
    </contour>
    <contour>
      <point x="66" y="124" type="line"/>
      <point x="501" y="517" type="line"/>
      <point x="449" y="517" type="line"/>
      <point x="77" y="177" type="line"/>
    </contour>
    <contour>
      <point x="213" y="268" type="line"/>
      <point x="365" y="0" type="line"/>
      <point x="410" y="0" type="line"/>
      <point x="242" y="293" type="line"/>
    </contour>
  </outline>
</glyph>
<glyph name="lslash" format="2">
  <advance width="285"/>
  <unicode hex="0142"/>
  <outline>
    <contour>
      <point x="259" y="349" type="line"/>
      <point x="267" y="390" type="line"/>
      <point x="52" y="290" type="line"/>
      <point x="44" y="249" type="line"/>
    </contour>
    <contour>
      <point x="109" y="0" type="line"/>
      <point x="254" y="699" type="line"/>
      <point x="218" y="699" type="line"/>
      <point x="73" y="0" type="line"/>
    </contour>
  </outline>
</glyph>
<glyph name="eng" format="2">
  <advance width="526"/>
  <unicode hex="014B"/>
  <anchor x="239" y="0" name="bottom"/>
  <outline>
    <component base="n"/>
    <contour>
      <point x="269" y="-178" type="curve" smooth="yes"/>
      <point x="331" y="-178"/>
      <point x="384" y="-128"/>
      <point x="399" y="-57" type="curve" smooth="yes"/>
      <point x="442" y="150" type="line"/>
      <point x="409" y="166" type="line"/>
      <point x="363" y="-55" type="line" smooth="yes"/>
      <point x="353" y="-105"/>
      <point x="313" y="-142"/>
      <point x="269" y="-142" type="curve" smooth="yes"/>
      <point x="246" y="-142"/>
      <point x="218" y="-137"/>
      <point x="201" y="-129" type="curve"/>
      <point x="190" y="-161" type="line"/>
      <point x="209" y="-170"/>
      <point x="241" y="-178"/>
    </contour>
  </outline>
</glyph>
<glyph name="Schwa" format="2">
  <advance width="781"/>
  <unicode hex="018F"/>
  <anchor x="454" y="703" name="bottom"/>
  <anchor x="303" y="-0" name="top"/>
  <outline>
    <contour>
      <point x="456" y="703" type="curve" smooth="yes"/>
      <point x="348" y="703"/>
      <point x="218" y="660"/>
      <point x="149" y="598" type="curve"/>
      <point x="177" y="559" type="line"/>
      <point x="246" y="622"/>
      <point x="349" y="655"/>
      <point x="449" y="655" type="curve" smooth="yes"/>
      <point x="585" y="655"/>
      <point x="680" y="547"/>
      <point x="680" y="409" type="curve" smooth="yes"/>
      <point x="680" y="222"/>
      <point x="510" y="32"/>
      <point x="316" y="32" type="curve" smooth="yes"/>
      <point x="195" y="32"/>
      <point x="110" y="92"/>
      <point x="110" y="175" type="curve" smooth="yes"/>
      <point x="110" y="264"/>
      <point x="209" y="318"/>
      <point x="376" y="318" type="curve" smooth="yes"/>
      <point x="688" y="318" type="line"/>
      <point x="698" y="365" type="line"/>
      <point x="385" y="365" type="line" smooth="yes"/>
      <point x="182" y="365"/>
      <point x="62" y="294"/>
      <point x="62" y="173" type="curve" smooth="yes"/>
      <point x="62" y="62"/>
      <point x="165" y="-16"/>
      <point x="308" y="-16" type="curve" smooth="yes"/>
      <point x="528" y="-16"/>
      <point x="728" y="194"/>
      <point x="728" y="415" type="curve" smooth="yes"/>
      <point x="728" y="578"/>
      <point x="617" y="703"/>
    </contour>
  </outline>
</glyph>
<glyph name="Ohorn" format="2">
  <advance width="806"/>
  <unicode hex="01A0"/>
  <outline>
    <contour>
      <point x="352" y="24" type="curve" smooth="yes"/>
      <point x="204" y="24"/>
      <point x="98" y="127"/>
      <point x="98" y="276" type="curve" smooth="yes"/>
      <point x="98" y="474"/>
      <point x="290" y="663"/>
      <point x="488" y="663" type="curve" smooth="yes"/>
      <point x="635" y="663"/>
      <point x="743" y="555"/>
      <point x="743" y="408" type="curve" smooth="yes"/>
      <point x="743" y="210"/>
      <point x="549" y="24"/>
    </contour>
    <contour>
      <point x="349" y="-12" type="curve" smooth="yes"/>
      <point x="566" y="-12"/>
      <point x="778" y="191"/>
      <point x="778" y="410" type="curve" smooth="yes"/>
      <point x="778" y="515"/>
      <point x="727" y="611"/>
      <point x="635" y="663" type="curve"/>
      <point x="729" y="663"/>
      <point x="795" y="716"/>
      <point x="815" y="808" type="curve"/>
      <point x="780" y="808" type="line"/>
      <point x="767" y="743"/>
      <point x="720" y="687"/>
      <point x="650" y="687" type="curve" smooth="yes"/>
      <point x="578" y="687" type="line" smooth="yes"/>
      <point x="571" y="687"/>
      <point x="564" y="691"/>
      <point x="557" y="692" type="curve" smooth="yes"/>
      <point x="535" y="697"/>
      <point x="514" y="699"/>
      <point x="492" y="699" type="curve" smooth="yes"/>
      <point x="275" y="699"/>
      <point x="62" y="490"/>
      <point x="62" y="272" type="curve" smooth="yes"/>
      <point x="62" y="105"/>
      <point x="183" y="-12"/>
    </contour>
  </outline>
</glyph>
<glyph name="uhorn" format="2">
  <advance width="553"/>
  <unicode hex="01B0"/>
  <outline>
    <contour>
      <point x="55" y="136" type="curve" smooth="yes"/>
      <point x="55" y="40"/>
      <point x="124" y="-12"/>
      <point x="216" y="-12" type="curve" smooth="yes"/>
      <point x="292" y="-12"/>
      <point x="364" y="24"/>
      <point x="405" y="89" type="curve"/>
      <point x="386" y="0" type="line"/>
      <point x="422" y="0" type="line"/>
      <point x="526" y="496" type="line"/>
      <point x="594" y="509"/>
      <point x="645" y="573"/>
      <point x="659" y="638" type="curve"/>
      <point x="624" y="638" type="line"/>
      <point x="612" y="576"/>
      <point x="569" y="522"/>
      <point x="505" y="517" type="curve"/>
      <point x="494" y="517" type="line"/>
      <point x="425" y="188" type="line"/>
      <point x="405" y="90"/>
      <point x="322" y="24"/>
      <point x="223" y="24" type="curve" smooth="yes"/>
      <point x="148" y="24"/>
      <point x="93" y="67"/>
      <point x="93" y="145" type="curve" smooth="yes"/>
      <point x="93" y="190"/>
      <point x="107" y="231"/>
      <point x="116" y="274" type="curve" smooth="yes"/>
      <point x="167" y="517" type="line"/>
      <point x="131" y="517" type="line"/>
      <point x="77" y="264" type="line" smooth="yes"/>
      <point x="68" y="223"/>
      <point x="55" y="178"/>
    </contour>
  </outline>
</glyph>
<glyph name="circumflex" format="2">
  <advance width="350"/>
  <unicode hex="02C6"/>
  <anchor x="228" y="517" name="_top"/>
  <anchor x="267" y="704" name="top"/>
  <outline>
    <contour>
      <point x="157" y="576" type="line"/>
      <point x="263" y="682" type="line"/>
      <point x="327" y="576" type="line"/>
      <point x="370" y="576" type="line"/>
      <point x="290" y="713" type="line"/>
      <point x="246" y="713" type="line"/>
      <point x="112" y="576" type="line"/>
    </contour>
  </outline>
</glyph>
<glyph name="caron" format="2">
  <advance width="350"/>
  <unicode hex="02C7"/>
  <anchor x="228" y="517" name="_top"/>
  <anchor x="267" y="704" name="top"/>
  <outline>
    <contour>
      <point x="263" y="576" type="line"/>
      <point x="399" y="713" type="line"/>
      <point x="354" y="713" type="line"/>
      <point x="246" y="607" type="line"/>
      <point x="184" y="713" type="line"/>
      <point x="141" y="713" type="line"/>
      <point x="219" y="576" type="line"/>
    </contour>
  </outline>
</glyph>
<glyph name="breve" format="2">
  <advance width="387"/>
  <unicode hex="02D8"/>
  <anchor x="246" y="517" name="_top"/>
  <anchor x="285" y="704" name="top"/>
  <outline>
    <contour>
      <point x="264" y="589" type="curve" smooth="yes"/>
      <point x="315" y="589"/>
      <point x="372" y="608"/>
      <point x="420" y="648" type="curve"/>
      <point x="398" y="676" type="line"/>
      <point x="359" y="644"/>
      <point x="311" y="626"/>
      <point x="266" y="626" type="curve" smooth="yes"/>
      <point x="223" y="626"/>
      <point x="183" y="642"/>
      <point x="158" y="674" type="curve"/>
      <point x="128" y="650" type="line"/>
      <point x="161" y="610"/>
      <point x="209" y="589"/>
    </contour>
  </outline>
</glyph>
<glyph name="hungarumlaut" format="2">
  <advance width="424"/>
  <unicode hex="02DD"/>
  <anchor x="206" y="517" name="_top"/>
  <anchor x="244" y="704" name="top"/>
  <outline>
    <contour>
      <point x="161" y="576" type="line"/>
      <point x="306" y="709" type="line"/>
      <point x="266" y="718" type="line"/>
      <point x="112" y="576" type="line"/>
    </contour>
    <contour>
      <point x="327" y="576" type="line"/>
      <point x="472" y="709" type="line"/>
      <point x="432" y="718" type="line"/>
      <point x="278" y="576" type="line"/>
    </contour>
  </outline>
</glyph>
<glyph name="hookabovecomb" format="2">
  <advance width="554"/>
  <unicode hex="0309"/>
  <outline>
    <contour>
      <point x="325.37" y="571" type="line"/>
      <point x="359.37" y="571" type="line"/>
      <point x="363.196" y="589" type="line"/>
      <point x="400.384" y="604"/>
      <point x="440.698" y="629"/>
      <point x="449.413" y="670" type="curve" smooth="yes"/>
      <point x="459.828" y="719"/>
      <point x="423.442" y="736"/>
      <point x="380.442" y="736" type="curve" smooth="yes"/>
      <point x="354.442" y="736"/>
      <point x="327.529" y="727"/>
      <point x="301.978" y="715" type="curve"/>
      <point x="297.113" y="678" type="line"/>
      <point x="323.239" y="688"/>
      <point x="349.215" y="702"/>
      <point x="376.215" y="702" type="curve" smooth="yes"/>
      <point x="398.215" y="702"/>
      <point x="421.152" y="697"/>
      <point x="415.413" y="670" type="curve" smooth="yes"/>
      <point x="407.973" y="635"/>
      <point x="363.36" y="618"/>
      <point x="333.66" y="610" type="curve"/>
    </contour>
  </outline>
</glyph>
<glyph name="dblgravecomb" format="2">
  <advance width="458"/>
  <unicode hex="030F"/>
  <outline>
    <contour>
      <point x="325" y="709" type="line"/>
      <point x="414" y="576" type="line"/>
      <point x="462" y="576" type="line"/>
      <point x="368" y="718" type="line"/>
    </contour>
    <contour>
      <point x="159" y="709" type="line"/>
      <point x="248" y="576" type="line"/>
      <point x="296" y="576" type="line"/>
      <point x="202" y="718" type="line"/>
    </contour>
  </outline>
</glyph>
<glyph name="breveinvertedcomb" format="2">
  <advance width="387"/>
  <unicode hex="0311"/>
  <anchor x="246" y="517" name="_top"/>
  <anchor x="285" y="704" name="top"/>
  <outline>
    <contour>
      <point x="273" y="676" type="curve" smooth="yes"/>
      <point x="222" y="676"/>
      <point x="165" y="657"/>
      <point x="117" y="617" type="curve"/>
      <point x="139" y="589" type="line"/>
      <point x="178" y="621"/>
      <point x="226" y="639"/>
      <point x="271" y="639" type="curve" smooth="yes"/>
      <point x="314" y="639"/>
      <point x="354" y="623"/>
      <point x="379" y="591" type="curve"/>
      <point x="409" y="615" type="line"/>
      <point x="376" y="655"/>
      <point x="328" y="676"/>
    </contour>
  </outline>
</glyph>
<glyph name="horncomb" format="2">
  <advance width="552"/>
  <unicode hex="031B"/>
  <outline>
    <contour>
      <point x="494" y="517" type="curve"/>
      <point x="487" y="517" type="line"/>
      <point x="482" y="493" type="line"/>
      <point x="489" y="493" type="line"/>
      <point x="575" y="493"/>
      <point x="642" y="553"/>
      <point x="660" y="638" type="curve"/>
      <point x="625" y="638" type="line"/>
      <point x="611" y="574"/>
      <point x="564" y="517"/>
    </contour>
  </outline>
</glyph>
<glyph name="commaaccentcomb" format="2">
  <advance width="184"/>
  <unicode hex="0326"/>
  <anchor x="43" y="0" name="_bottom"/>
  <anchor x="148" y="517" name="_top"/>
  <outline>
    <contour>
      <point x="-35" y="-269" type="line"/>
      <point x="21" y="-210"/>
      <point x="50" y="-162"/>
      <point x="50" y="-127" type="curve" smooth="yes"/>
      <point x="50" y="-108"/>
      <point x="39" y="-97"/>
      <point x="22" y="-97" type="curve" smooth="yes"/>
      <point x="3" y="-97"/>
      <point x="-12" y="-113"/>
      <point x="-12" y="-132" type="curve" smooth="yes"/>
      <point x="-12" y="-147"/>
      <point x="-2" y="-157"/>
      <point x="14" y="-156" type="curve"/>
      <point x="0" y="-184"/>
      <point x="-27" y="-218"/>
      <point x="-59" y="-248" type="curve"/>
    </contour>
  </outline>
</glyph>
<glyph name="endash" format="2">
  <advance width="583"/>
  <unicode hex="2013"/>
  <outline>
    <contour>
      <point x="523" y="254" type="line"/>
      <point x="531" y="290" type="line"/>
      <point x="66" y="290" type="line"/>
      <point x="58" y="254" type="line"/>
    </contour>
  </outline>
</glyph>
<glyph name="fraction" format="2">
  <advance width="166"/>
  <unicode hex="2044"/>
  <outline>
    <contour>
      <point x="-191" y="0" type="line"/>
      <point x="417" y="687" type="line"/>
      <point x="368" y="687" type="line"/>
      <point x="-240" y="0" type="line"/>
    </contour>
  </outline>
</glyph>
<glyph name="zero.superior" format="2">
  <advance width="410"/>
  <unicode hex="2070"/>
  <outline>
    <contour>
      <point x="175" y="268" type="curve" smooth="yes"/>
      <point x="302" y="268"/>
      <point x="393" y="406"/>
      <point x="393" y="539" type="curve" smooth="yes"/>
      <point x="393" y="633"/>
      <point x="341" y="694"/>
      <point x="257" y="694" type="curve" smooth="yes"/>
      <point x="130" y="694"/>
      <point x="38" y="556"/>
      <point x="38" y="424" type="curve" smooth="yes"/>
      <point x="38" y="330"/>
      <point x="90" y="268"/>
    </contour>
    <contour>
      <point x="177" y="311" type="curve" smooth="yes"/>
      <point x="119" y="311"/>
      <point x="85" y="357"/>
      <point x="85" y="426" type="curve" smooth="yes"/>
      <point x="85" y="528"/>
      <point x="155" y="651"/>
      <point x="254" y="651" type="curve" smooth="yes"/>
      <point x="312" y="651"/>
      <point x="346" y="606"/>
      <point x="346" y="538" type="curve" smooth="yes"/>
      <point x="346" y="434"/>
      <point x="277" y="311"/>
    </contour>
  </outline>
</glyph>
<glyph name="four.superior" format="2">
  <advance width="379"/>
  <unicode hex="2074"/>
  <outline>
    <contour>
      <point x="255" y="275" type="line"/>
      <point x="276" y="375" type="line"/>
      <point x="338" y="375" type="line"/>
      <point x="347" y="418" type="line"/>
      <point x="285" y="418" type="line"/>
      <point x="341" y="687" type="line"/>
      <point x="286" y="687" type="line"/>
      <point x="25" y="414" type="line"/>
      <point x="24" y="375" type="line"/>
      <point x="229" y="375" type="line"/>
      <point x="208" y="275" type="line"/>
    </contour>
    <contour>
      <point x="283" y="631" type="line"/>
      <point x="238" y="418" type="line"/>
      <point x="80" y="418" type="line"/>
    </contour>
  </outline>
</glyph>
<glyph name="seven.superior" format="2">
  <advance width="338"/>
  <unicode hex="2077"/>
  <outline>
    <contour>
      <point x="99" y="275" type="line"/>
      <point x="355" y="652" type="line"/>
      <point x="362" y="687" type="line"/>
      <point x="83" y="687" type="line"/>
      <point x="74" y="643" type="line"/>
      <point x="296" y="643" type="line"/>
      <point x="44" y="275" type="line"/>
    </contour>
  </outline>
</glyph>
<glyph name="nine.superior" format="2">
  <advance width="367"/>
  <unicode hex="2079"/>
  <outline>
    <contour>
      <point x="228" y="694" type="curve" smooth="yes"/>
      <point x="136" y="694"/>
      <point x="56" y="622"/>
      <point x="56" y="532" type="curve" smooth="yes"/>
      <point x="56" y="467"/>
      <point x="105" y="430"/>
      <point x="173" y="430" type="curve" smooth="yes"/>
      <point x="224" y="430"/>
      <point x="275" y="456"/>
      <point x="309" y="503" type="curve"/>
      <point x="311" y="567" type="line"/>
      <point x="297" y="511"/>
      <point x="243" y="470"/>
      <point x="183" y="470" type="curve" smooth="yes"/>
      <point x="135" y="470"/>
      <point x="102" y="494"/>
      <point x="102" y="537" type="curve" smooth="yes"/>
      <point x="102" y="596"/>
      <point x="161" y="654"/>
      <point x="227" y="654" type="curve" smooth="yes"/>
      <point x="282" y="654"/>
      <point x="306" y="612"/>
      <point x="306" y="553" type="curve" smooth="yes"/>
      <point x="306" y="446"/>
      <point x="233" y="310"/>
      <point x="139" y="310" type="curve" smooth="yes"/>
      <point x="101" y="310"/>
      <point x="78" y="327"/>
      <point x="57" y="352" type="curve"/>
      <point x="27" y="318" type="line"/>
      <point x="51" y="289"/>
      <point x="84" y="268"/>
      <point x="136" y="268" type="curve" smooth="yes"/>
      <point x="258" y="268"/>
      <point x="353" y="419"/>
      <point x="353" y="557" type="curve" smooth="yes"/>
      <point x="353" y="638"/>
      <point x="317" y="694"/>
    </contour>
  </outline>
</glyph>
<glyph name="one.inferior" format="2">
  <advance width="213"/>
  <unicode hex="2081"/>
  <outline>
    <contour>
      <point x="134" y="0" type="line"/>
      <point x="220" y="412" type="line"/>
      <point x="182" y="412" type="line"/>
      <point x="67" y="343" type="line"/>
      <point x="80" y="308" type="line"/>
      <point x="161" y="355" type="line"/>
      <point x="87" y="0" type="line"/>
    </contour>
  </outline>
</glyph>
<glyph name="three.inferior" format="2">
  <advance width="354"/>
  <unicode hex="2083"/>
  <outline>
    <contour>
      <point x="147" y="-7" type="curve" smooth="yes"/>
      <point x="235" y="-7"/>
      <point x="314" y="49"/>
      <point x="314" y="130" type="curve" smooth="yes"/>
      <point x="314" y="177"/>
      <point x="278" y="202"/>
      <point x="244" y="210" type="curve"/>
      <point x="302" y="226"/>
      <point x="346" y="268"/>
      <point x="346" y="326" type="curve" smooth="yes"/>
      <point x="346" y="382"/>
      <point x="299" y="419"/>
      <point x="227" y="419" type="curve" smooth="yes"/>
      <point x="165" y="419"/>
      <point x="114" y="389"/>
      <point x="74" y="348" type="curve"/>
      <point x="101" y="317" type="line"/>
      <point x="137" y="353"/>
      <point x="176" y="377"/>
      <point x="223" y="377" type="curve" smooth="yes"/>
      <point x="268" y="377"/>
      <point x="298" y="353"/>
      <point x="298" y="319" type="curve" smooth="yes"/>
      <point x="298" y="265"/>
      <point x="242" y="229"/>
      <point x="182" y="230" type="curve"/>
      <point x="139" y="230" type="line"/>
      <point x="130" y="187" type="line"/>
      <point x="176" y="187" type="line" smooth="yes"/>
      <point x="233" y="187"/>
      <point x="268" y="169"/>
      <point x="268" y="132" type="curve" smooth="yes"/>
      <point x="268" y="77"/>
      <point x="213" y="35"/>
      <point x="149" y="35" type="curve" smooth="yes"/>
      <point x="101" y="35"/>
      <point x="66" y="58"/>
      <point x="46" y="93" type="curve"/>
      <point x="10" y="65" type="line"/>
      <point x="32" y="25"/>
      <point x="78" y="-7"/>
    </contour>
  </outline>
</glyph>
<glyph name="four.inferior" format="2">
  <advance width="379"/>
  <unicode hex="2084"/>
  <outline>
    <contour>
      <point x="255" y="0" type="line"/>
      <point x="276" y="100" type="line"/>
      <point x="338" y="100" type="line"/>
      <point x="347" y="143" type="line"/>
      <point x="285" y="143" type="line"/>
      <point x="341" y="412" type="line"/>
      <point x="286" y="412" type="line"/>
      <point x="25" y="139" type="line"/>
      <point x="24" y="100" type="line"/>
      <point x="229" y="100" type="line"/>
      <point x="208" y="0" type="line"/>
    </contour>
    <contour>
      <point x="283" y="356" type="line"/>
      <point x="238" y="143" type="line"/>
      <point x="80" y="143" type="line"/>
    </contour>
  </outline>
</glyph>
<glyph name="five.inferior" format="2">
  <advance width="351"/>
  <unicode hex="2085"/>
  <outline>
    <contour>
      <point x="142" y="-7" type="curve" smooth="yes"/>
      <point x="238" y="-7"/>
      <point x="317" y="64"/>
      <point x="317" y="155" type="curve" smooth="yes"/>
      <point x="317" y="220"/>
      <point x="268" y="257"/>
      <point x="201" y="257" type="curve" smooth="yes"/>
      <point x="165" y="257"/>
      <point x="134" y="245"/>
      <point x="109" y="230" type="curve"/>
      <point x="143" y="368" type="line"/>
      <point x="341" y="368" type="line"/>
      <point x="350" y="412" type="line"/>
      <point x="107" y="412" type="line"/>
      <point x="57" y="200" type="line"/>
      <point x="89" y="182" type="line"/>
      <point x="119" y="202"/>
      <point x="152" y="215"/>
      <point x="190" y="215" type="curve" smooth="yes"/>
      <point x="238" y="215"/>
      <point x="269" y="189"/>
      <point x="269" y="148" type="curve" smooth="yes"/>
      <point x="269" y="88"/>
      <point x="212" y="35"/>
      <point x="146" y="35" type="curve" smooth="yes"/>
      <point x="103" y="35"/>
      <point x="68" y="56"/>
      <point x="44" y="91" type="curve"/>
      <point x="8" y="59" type="line"/>
      <point x="35" y="21"/>
      <point x="77" y="-7"/>
    </contour>
  </outline>
</glyph>
<glyph name="six.inferior" format="2">
  <advance width="367"/>
  <unicode hex="2086"/>
  <outline>
    <contour>
      <point x="160" y="-7" type="curve" smooth="yes"/>
      <point x="252" y="-7"/>
      <point x="332" y="65"/>
      <point x="332" y="155" type="curve" smooth="yes"/>
      <point x="332" y="220"/>
      <point x="283" y="257"/>
      <point x="215" y="257" type="curve" smooth="yes"/>
      <point x="164" y="257"/>
      <point x="113" y="231"/>
      <point x="79" y="184" type="curve"/>
      <point x="77" y="120" type="line"/>
      <point x="91" y="176"/>
      <point x="145" y="217"/>
      <point x="205" y="217" type="curve" smooth="yes"/>
      <point x="253" y="217"/>
      <point x="286" y="193"/>
      <point x="286" y="150" type="curve" smooth="yes"/>
      <point x="286" y="91"/>
      <point x="227" y="33"/>
      <point x="161" y="33" type="curve" smooth="yes"/>
      <point x="106" y="33"/>
      <point x="82" y="75"/>
      <point x="82" y="134" type="curve" smooth="yes"/>
      <point x="82" y="241"/>
      <point x="155" y="377"/>
      <point x="249" y="377" type="curve" smooth="yes"/>
      <point x="287" y="377"/>
      <point x="310" y="360"/>
      <point x="331" y="335" type="curve"/>
      <point x="361" y="369" type="line"/>
      <point x="337" y="398"/>
      <point x="304" y="419"/>
      <point x="252" y="419" type="curve" smooth="yes"/>
      <point x="130" y="419"/>
      <point x="35" y="268"/>
      <point x="35" y="130" type="curve" smooth="yes"/>
      <point x="35" y="49"/>
      <point x="71" y="-7"/>
    </contour>
  </outline>
</glyph>
<glyph name="Euro" format="2">
  <advance width="885"/>
  <unicode hex="20AC"/>
  <anchor x="489" y="0" name="bottom"/>
  <anchor x="628" y="687" name="top"/>
  <outline>
    <contour>
      <point x="586" y="252" type="line"/>
      <point x="593" y="288" type="line"/>
      <point x="97" y="288" type="line"/>
      <point x="90" y="252" type="line"/>
    </contour>
    <contour>
      <point x="621" y="419" type="line"/>
      <point x="628" y="455" type="line"/>
      <point x="132" y="455" type="line"/>
      <point x="125" y="419" type="line"/>
    </contour>
    <contour>
      <point x="491" y="-12" type="curve" smooth="yes"/>
      <point x="581" y="-12"/>
      <point x="689" y="33"/>
      <point x="761" y="92" type="curve"/>
      <point x="738" y="120" type="line"/>
      <point x="672" y="64"/>
      <point x="573" y="24"/>
      <point x="493" y="24" type="curve" smooth="yes"/>
      <point x="361" y="24"/>
      <point x="242" y="134"/>
      <point x="242" y="289" type="curve" smooth="yes"/>
      <point x="242" y="481"/>
      <point x="426" y="663"/>
      <point x="625" y="663" type="curve" smooth="yes"/>
      <point x="719" y="663"/>
      <point x="792" y="622"/>
      <point x="834" y="570" type="curve"/>
      <point x="863" y="593" type="line"/>
      <point x="812" y="655"/>
      <point x="728" y="699"/>
      <point x="626" y="699" type="curve" smooth="yes"/>
      <point x="408" y="699"/>
      <point x="206" y="499"/>
      <point x="206" y="286" type="curve" smooth="yes"/>
      <point x="206" y="110"/>
      <point x="343" y="-12"/>
    </contour>
  </outline>
</glyph>
<glyph name="arrowboth" format="2">
  <advance width="1278"/>
  <unicode hex="2194"/>
  <outline>
    <contour>
      <point x="401" y="16" type="line"/>
      <point x="303" y="114"/>
      <point x="206" y="213"/>
      <point x="106" y="308" type="curve"/>
      <point x="133" y="307"/>
      <point x="161" y="307"/>
      <point x="188" y="307" type="curve"/>
      <point x="1091" y="308" type="line"/>
      <point x="1118" y="308"/>
      <point x="1145" y="308"/>
      <point x="1172" y="308" type="curve"/>
      <point x="1072" y="213"/>
      <point x="975" y="114"/>
      <point x="877" y="16" type="curve"/>
      <point x="893" y="0" type="line"/>
      <point x="1211" y="318" type="line"/>
      <point x="893" y="637" type="line"/>
      <point x="877" y="621" type="line"/>
      <point x="975" y="523"/>
      <point x="1072" y="424"/>
      <point x="1172" y="329" type="curve"/>
      <point x="1145" y="330"/>
      <point x="1118" y="330"/>
      <point x="1091" y="330" type="curve"/>
      <point x="188" y="329" type="line"/>
      <point x="161" y="329"/>
      <point x="133" y="329"/>
      <point x="106" y="329" type="curve"/>
      <point x="206" y="424"/>
      <point x="303" y="523"/>
      <point x="401" y="621" type="curve"/>
      <point x="386" y="637" type="line"/>
      <point x="67" y="318" type="line"/>
      <point x="386" y="0" type="line"/>
    </contour>
  </outline>
</glyph>
<glyph name="arrowNE" format="2">
  <advance width="685"/>
  <unicode hex="2197"/>
  <outline>
    <contour>
      <point x="593" y="516" type="line"/>
      <point x="143" y="516" type="line"/>
      <point x="143" y="493" type="line"/>
      <point x="451" y="493" type="line" smooth="yes"/>
      <point x="487" y="493"/>
      <point x="522" y="495"/>
      <point x="558" y="496" type="curve"/>
      <point x="538" y="477"/>
      <point x="519" y="457"/>
      <point x="500" y="438" type="curve" smooth="yes"/>
      <point x="68" y="7" type="line"/>
      <point x="84" y="-9" type="line"/>
      <point x="516" y="423" type="line" smooth="yes"/>
      <point x="535" y="442"/>
      <point x="553" y="462"/>
      <point x="573" y="480" type="curve"/>
      <point x="572" y="445"/>
      <point x="570" y="409"/>
      <point x="570" y="374" type="curve" smooth="yes"/>
      <point x="570" y="65" type="line"/>
      <point x="593" y="65" type="line"/>
    </contour>
  </outline>
</glyph>
<glyph name="Euro.tf" format="2">
  <advance width="700"/>
  <anchor x="396" y="0" name="bottom"/>
  <anchor x="535" y="687" name="top"/>
  <outline>
    <contour>
      <point x="493" y="252" type="line"/>
      <point x="500" y="288" type="line"/>
      <point x="4" y="288" type="line"/>
      <point x="-3" y="252" type="line"/>
    </contour>
    <contour>
      <point x="528" y="419" type="line"/>
      <point x="535" y="455" type="line"/>
      <point x="39" y="455" type="line"/>
      <point x="32" y="419" type="line"/>
    </contour>
    <contour>
      <point x="398" y="-12" type="curve" smooth="yes"/>
      <point x="488" y="-12"/>
      <point x="596" y="33"/>
      <point x="668" y="92" type="curve"/>
      <point x="645" y="120" type="line"/>
      <point x="579" y="64"/>
      <point x="480" y="24"/>
      <point x="400" y="24" type="curve" smooth="yes"/>
      <point x="268" y="24"/>
      <point x="149" y="134"/>
      <point x="149" y="289" type="curve" smooth="yes"/>
      <point x="149" y="481"/>
      <point x="333" y="663"/>
      <point x="532" y="663" type="curve" smooth="yes"/>
      <point x="626" y="663"/>
      <point x="699" y="622"/>
      <point x="741" y="570" type="curve"/>
      <point x="770" y="593" type="line"/>
      <point x="719" y="655"/>
      <point x="635" y="699"/>
      <point x="533" y="699" type="curve" smooth="yes"/>
      <point x="315" y="699"/>
      <point x="113" y="499"/>
      <point x="113" y="286" type="curve" smooth="yes"/>
      <point x="113" y="110"/>
      <point x="250" y="-12"/>
    </contour>
  </outline>
</glyph>
<glyph name="ae_upper" format="2">
  <advance width="434"/>
  <anchor x="497" y="687" name="_ae_upper"/>
  <outline>
    <contour>
      <point x="-20" y="0" type="line"/>
      <point x="519" y="687" type="line"/>
      <point x="477" y="687" type="line"/>
      <point x="-63" y="0" type="line"/>
    </contour>
    <contour>
      <point x="408" y="175" type="line"/>
      <point x="415" y="211" type="line"/>
      <point x="111" y="211" type="line"/>
      <point x="104" y="175" type="line"/>
    </contour>
  </outline>
</glyph>
<glyph name="ascender" format="2">
  <advance width="237"/>
  <anchor x="100" y="125" name="k_arms"/>
  <anchor x="99" y="249" name="loop_left"/>
  <anchor x="136" y="257" name="loop_right"/>
  <anchor x="151" y="329" name="shoulder"/>
  <outline>
    <contour>
      <point x="83" y="0" type="line"/>
      <point x="228" y="699" type="line"/>
      <point x="192" y="699" type="line"/>
      <point x="47" y="0" type="line"/>
    </contour>
  </outline>
</glyph>
<glyph name="breveacute.case" format="2">
  <advance width="710"/>
  <outline>
    <contour>
      <point x="420" y="843" type="line"/>
      <point x="468" y="843" type="line"/>
      <point x="606" y="936" type="line"/>
      <point x="566" y="943" type="line"/>
    </contour>
    <contour>
      <point x="316" y="802" type="line"/>
      <point x="353" y="773"/>
      <point x="402" y="759"/>
      <point x="456" y="759" type="curve" smooth="yes"/>
      <point x="515" y="759"/>
      <point x="565" y="775"/>
      <point x="608" y="801" type="curve"/>
      <point x="584" y="820" type="line"/>
      <point x="548" y="799"/>
      <point x="504" y="785"/>
      <point x="455" y="785" type="curve" smooth="yes"/>
      <point x="412" y="785"/>
      <point x="373" y="795"/>
      <point x="344" y="819" type="curve"/>
    </contour>
  </outline>
</glyph>
<glyph name="brevegrave" format="2">
  <advance width="554"/>
  <outline>
    <contour>
      <point x="302" y="842" type="line"/>
      <point x="392" y="709" type="line"/>
      <point x="440" y="709" type="line"/>
      <point x="345" y="851" type="line"/>
    </contour>
    <contour>
      <point x="234" y="650" type="line"/>
      <point x="269" y="608"/>
      <point x="316" y="589"/>
      <point x="370" y="589" type="curve" smooth="yes"/>
      <point x="429" y="589"/>
      <point x="481" y="611"/>
      <point x="526" y="648" type="curve"/>
      <point x="504" y="676" type="line"/>
      <point x="466" y="645"/>
      <point x="421" y="626"/>
      <point x="372" y="626" type="curve" smooth="yes"/>
      <point x="329" y="626"/>
      <point x="291" y="640"/>
      <point x="264" y="674" type="curve"/>
    </contour>
  </outline>
</glyph>
<glyph name="brevehoi" format="2">
  <advance width="554"/>
  <outline>
    <contour>
      <point x="365" y="686" type="line"/>
      <point x="399" y="686" type="line"/>
      <point x="403" y="704" type="line"/>
      <point x="445" y="721"/>
      <point x="491" y="750"/>
      <point x="491" y="801" type="curve" smooth="yes"/>
      <point x="491" y="839"/>
      <point x="452" y="851"/>
      <point x="420" y="851" type="curve" smooth="yes"/>
      <point x="393" y="851"/>
      <point x="365" y="841"/>
      <point x="341" y="830" type="curve"/>
      <point x="336" y="793" type="line"/>
      <point x="362" y="803"/>
      <point x="386" y="817"/>
      <point x="415" y="817" type="curve" smooth="yes"/>
      <point x="432" y="817"/>
      <point x="456" y="814"/>
      <point x="456" y="792" type="curve" smooth="yes"/>
      <point x="456" y="755"/>
      <point x="402" y="734"/>
      <point x="373" y="725" type="curve"/>
    </contour>
    <contour>
      <point x="234" y="650" type="line"/>
      <point x="269" y="608"/>
      <point x="316" y="589"/>
      <point x="370" y="589" type="curve" smooth="yes"/>
      <point x="429" y="589"/>
      <point x="481" y="611"/>
      <point x="526" y="648" type="curve"/>
      <point x="504" y="676" type="line"/>
      <point x="466" y="645"/>
      <point x="421" y="626"/>
      <point x="372" y="626" type="curve" smooth="yes"/>
      <point x="329" y="626"/>
      <point x="291" y="640"/>
      <point x="264" y="674" type="curve"/>
    </contour>
  </outline>
</glyph>
<glyph name="brevetilde.case" format="2">
  <advance width="710"/>
  <outline>
    <contour>
      <point x="317" y="863" type="curve"/>
      <point x="352" y="858" type="line"/>
      <point x="361" y="880"/>
      <point x="380" y="913"/>
      <point x="419" y="913" type="curve" smooth="yes"/>
      <point x="451" y="913"/>
      <point x="488" y="867"/>
      <point x="538" y="867" type="curve" smooth="yes"/>
      <point x="600" y="867"/>
      <point x="630" y="906"/>
      <point x="645" y="943" type="curve"/>
      <point x="610" y="948" type="line"/>
      <point x="601" y="927"/>
      <point x="582" y="892"/>
      <point x="544" y="892" type="curve" smooth="yes"/>
      <point x="514" y="892"/>
      <point x="473" y="939"/>
      <point x="424" y="939" type="curve" smooth="yes"/>
      <point x="364" y="939"/>
      <point x="331" y="899"/>
    </contour>
    <contour>
      <point x="316" y="802" type="line"/>
      <point x="353" y="773"/>
      <point x="402" y="759"/>
      <point x="456" y="759" type="curve" smooth="yes"/>
      <point x="515" y="759"/>
      <point x="565" y="775"/>
      <point x="608" y="801" type="curve"/>
      <point x="584" y="820" type="line"/>
      <point x="548" y="799"/>
      <point x="504" y="785"/>
      <point x="455" y="785" type="curve" smooth="yes"/>
      <point x="412" y="785"/>
      <point x="373" y="795"/>
      <point x="344" y="819" type="curve"/>
    </contour>
  </outline>
</glyph>
<glyph name="cent.tf.rvrn" format="2">
  <advance width="700"/>
  <anchor x="336" y="0" name="bottom"/>
  <anchor x="437" y="517" name="top"/>
  <outline>
    <contour>
      <point x="324" y="-74" type="line"/>
      <point x="341" y="8" type="line"/>
      <point x="306" y="15" type="line"/>
      <point x="288" y="-74" type="line"/>
    </contour>
    <contour>
      <point x="447" y="517" type="line"/>
      <point x="462" y="589" type="line"/>
      <point x="426" y="589" type="line"/>
      <point x="409" y="508" type="line"/>
    </contour>
    <contour>
      <point x="338" y="-12" type="curve" smooth="yes"/>
      <point x="398" y="-12"/>
      <point x="477" y="19"/>
      <point x="529" y="63" type="curve"/>
      <point x="507" y="90" type="line"/>
      <point x="461" y="51"/>
      <point x="391" y="24"/>
      <point x="340" y="24" type="curve" smooth="yes"/>
      <point x="236" y="24"/>
      <point x="163" y="96"/>
      <point x="163" y="198" type="curve" smooth="yes"/>
      <point x="163" y="358"/>
      <point x="291" y="493"/>
      <point x="443" y="493" type="curve" smooth="yes"/>
      <point x="494" y="493"/>
      <point x="550" y="466"/>
      <point x="579" y="429" type="curve"/>
      <point x="608" y="452" type="line"/>
      <point x="572" y="497"/>
      <point x="505" y="529"/>
      <point x="445" y="529" type="curve" smooth="yes"/>
      <point x="272" y="529"/>
      <point x="127" y="376"/>
      <point x="127" y="195" type="curve" smooth="yes"/>
      <point x="127" y="74"/>
      <point x="214" y="-12"/>
    </contour>
  </outline>
</glyph>
<glyph name="circumflexacute.case" format="2">
  <advance width="710"/>
  <outline>
    <contour>
      <point x="729" y="935" type="line"/>
      <point x="689" y="942" type="line"/>
      <point x="543" y="842" type="line"/>
      <point x="591" y="842" type="line"/>
    </contour>
    <contour>
      <point x="580" y="746" type="line"/>
      <point x="492" y="842" type="line"/>
      <point x="448" y="842" type="line"/>
      <point x="322" y="746" type="line"/>
      <point x="367" y="746" type="line"/>
      <point x="467" y="820" type="line"/>
      <point x="537" y="746" type="line"/>
    </contour>
  </outline>
</glyph>
<glyph name="circumflexgrave.case" format="2">
  <advance width="710"/>
  <outline>
    <contour>
      <point x="490" y="935" type="line"/>
      <point x="588" y="842" type="line"/>
      <point x="636" y="842" type="line"/>
      <point x="532" y="942" type="line"/>
    </contour>
    <contour>
      <point x="580" y="746" type="line"/>
      <point x="492" y="842" type="line"/>
      <point x="448" y="842" type="line"/>
      <point x="322" y="746" type="line"/>
      <point x="367" y="746" type="line"/>
      <point x="467" y="820" type="line"/>
      <point x="537" y="746" type="line"/>
    </contour>
  </outline>
</glyph>
<glyph name="circumflexhoi.case" format="2">
  <advance width="710"/>
  <outline>
    <contour>
      <point x="616" y="839" type="line"/>
      <point x="657" y="851"/>
      <point x="698" y="871"/>
      <point x="698" y="907" type="curve" smooth="yes"/>
      <point x="698" y="933"/>
      <point x="656" y="942"/>
      <point x="624" y="942" type="curve" smooth="yes"/>
      <point x="597" y="942"/>
      <point x="570" y="935"/>
      <point x="547" y="927" type="curve"/>
      <point x="545" y="901" type="line"/>
      <point x="564" y="907"/>
      <point x="600" y="918"/>
      <point x="622" y="918" type="curve" smooth="yes"/>
      <point x="638" y="918"/>
      <point x="664" y="916"/>
      <point x="664" y="901" type="curve" smooth="yes"/>
      <point x="664" y="876"/>
      <point x="615" y="858"/>
      <point x="585" y="853" type="curve"/>
      <point x="579" y="826" type="line"/>
      <point x="613" y="826" type="line"/>
    </contour>
    <contour>
      <point x="580" y="746" type="line"/>
      <point x="492" y="842" type="line"/>
      <point x="448" y="842" type="line"/>
      <point x="322" y="746" type="line"/>
      <point x="367" y="746" type="line"/>
      <point x="467" y="820" type="line"/>
      <point x="537" y="746" type="line"/>
    </contour>
  </outline>
</glyph>
<glyph name="circumflexhoi" format="2">
  <advance width="554"/>
  <outline>
    <contour>
      <point x="538" y="708" type="line"/>
      <point x="580" y="725"/>
      <point x="626" y="754"/>
      <point x="626" y="805" type="curve" smooth="yes"/>
      <point x="626" y="843"/>
      <point x="587" y="855"/>
      <point x="555" y="855" type="curve" smooth="yes"/>
      <point x="528" y="855"/>
      <point x="500" y="845"/>
      <point x="476" y="834" type="curve"/>
      <point x="472" y="797" type="line"/>
      <point x="492" y="805"/>
      <point x="529" y="821"/>
      <point x="551" y="821" type="curve" smooth="yes"/>
      <point x="567" y="821"/>
      <point x="591" y="818"/>
      <point x="591" y="797" type="curve" smooth="yes"/>
      <point x="591" y="761"/>
      <point x="538" y="736"/>
      <point x="508" y="729" type="curve"/>
      <point x="500" y="690" type="line"/>
      <point x="534" y="690" type="line"/>
    </contour>
    <contour>
      <point x="494" y="576" type="line"/>
      <point x="414" y="713" type="line"/>
      <point x="370" y="713" type="line"/>
      <point x="236" y="576" type="line"/>
      <point x="281" y="576" type="line"/>
      <point x="387" y="682" type="line"/>
      <point x="451" y="576" type="line"/>
    </contour>
  </outline>
</glyph>
<glyph name="circumflextilde.case" format="2">
  <advance width="710"/>
  <outline>
    <contour>
      <point x="419" y="909" type="curve" smooth="yes"/>
      <point x="451" y="909"/>
      <point x="488" y="862"/>
      <point x="538" y="862" type="curve" smooth="yes"/>
      <point x="600" y="862"/>
      <point x="630" y="902"/>
      <point x="646" y="938" type="curve"/>
      <point x="610" y="943" type="line"/>
      <point x="601" y="923"/>
      <point x="582" y="888"/>
      <point x="544" y="888" type="curve" smooth="yes"/>
      <point x="514" y="888"/>
      <point x="473" y="934"/>
      <point x="424" y="934" type="curve" smooth="yes"/>
      <point x="364" y="934"/>
      <point x="331" y="894"/>
      <point x="318" y="858" type="curve"/>
      <point x="352" y="853" type="line"/>
      <point x="361" y="875"/>
      <point x="380" y="909"/>
    </contour>
    <contour>
      <point x="580" y="746" type="line"/>
      <point x="492" y="842" type="line"/>
      <point x="448" y="842" type="line"/>
      <point x="322" y="746" type="line"/>
      <point x="367" y="746" type="line"/>
      <point x="467" y="820" type="line"/>
      <point x="537" y="746" type="line"/>
    </contour>
  </outline>
</glyph>
<glyph name="descender" format="2">
  <advance width="237"/>
  <anchor x="99" y="249" name="loop_left"/>
  <anchor x="136" y="257" name="loop_right"/>
  <outline>
    <contour>
      <point x="47" y="-172" type="line"/>
      <point x="190" y="517" type="line"/>
      <point x="154" y="517" type="line"/>
      <point x="11" y="-172" type="line"/>
    </contour>
  </outline>
</glyph>
<glyph name="divide.tf" format="2">
  <advance width="700"/>
  <outline>
    <contour>
      <point x="585" y="316" type="line"/>
      <point x="593" y="352" type="line"/>
      <point x="134" y="352" type="line"/>
      <point x="126" y="316" type="line"/>
    </contour>
    <contour>
      <point x="324" y="142" type="curve" smooth="yes"/>
      <point x="340" y="142"/>
      <point x="356" y="158"/>
      <point x="356" y="176" type="curve" smooth="yes"/>
      <point x="356" y="190"/>
      <point x="346" y="202"/>
      <point x="331" y="202" type="curve" smooth="yes"/>
      <point x="311" y="202"/>
      <point x="296" y="183"/>
      <point x="296" y="168" type="curve" smooth="yes"/>
      <point x="296" y="153"/>
      <point x="307" y="142"/>
    </contour>
    <contour>
      <point x="391" y="466" type="curve" smooth="yes"/>
      <point x="408" y="466"/>
      <point x="424" y="483"/>
      <point x="424" y="501" type="curve" smooth="yes"/>
      <point x="424" y="515"/>
      <point x="413" y="526"/>
      <point x="398" y="526" type="curve" smooth="yes"/>
      <point x="378" y="526"/>
      <point x="364" y="509"/>
      <point x="364" y="494" type="curve" smooth="yes"/>
      <point x="364" y="478"/>
      <point x="374" y="466"/>
    </contour>
  </outline>
</glyph>
<glyph name="dollar.tf" format="2">
  <advance width="700"/>
  <anchor x="308" y="0" name="bottom"/>
  <anchor x="449" y="687" name="top"/>
  <outline>
    <contour>
      <point x="297" y="-74" type="line"/>
      <point x="470" y="759" type="line"/>
      <point x="434" y="759" type="line"/>
      <point x="261" y="-74" type="line"/>
    </contour>
    <contour>
      <point x="312" y="-11" type="curve" smooth="yes"/>
      <point x="461" y="-11"/>
      <point x="586" y="89"/>
      <point x="586" y="208" type="curve" smooth="yes"/>
      <point x="586" y="294"/>
      <point x="526" y="327"/>
      <point x="392" y="365" type="curve" smooth="yes"/>
      <point x="289" y="394"/>
      <point x="215" y="415"/>
      <point x="215" y="490" type="curve" smooth="yes"/>
      <point x="215" y="584"/>
      <point x="317" y="664"/>
      <point x="439" y="664" type="curve" smooth="yes"/>
      <point x="516" y="664"/>
      <point x="588" y="629"/>
      <point x="632" y="575" type="curve"/>
      <point x="658" y="601" type="line"/>
      <point x="603" y="663"/>
      <point x="524" y="700"/>
      <point x="441" y="700" type="curve" smooth="yes"/>
      <point x="299" y="700"/>
      <point x="179" y="600"/>
      <point x="179" y="481" type="curve" smooth="yes"/>
      <point x="179" y="397"/>
      <point x="243" y="369"/>
      <point x="374" y="332" type="curve" smooth="yes"/>
      <point x="472" y="305"/>
      <point x="549" y="282"/>
      <point x="549" y="200" type="curve" smooth="yes"/>
      <point x="549" y="105"/>
      <point x="442" y="25"/>
      <point x="314" y="25" type="curve" smooth="yes"/>
      <point x="231" y="25"/>
      <point x="141" y="59"/>
      <point x="89" y="125" type="curve"/>
      <point x="64" y="99" type="line"/>
      <point x="123" y="26"/>
      <point x="220" y="-11"/>
    </contour>
  </outline>
</glyph>
<glyph name="dong.tf" format="2">
  <advance width="700"/>
  <outline>
    <contour>
      <point x="524" y="-91" type="line"/>
      <point x="65" y="-91" type="line"/>
      <point x="57" y="-127" type="line"/>
      <point x="516" y="-127" type="line"/>
    </contour>
    <contour>
      <point x="688" y="699" type="line"/>
      <point x="652" y="699" type="line"/>
      <point x="637" y="628" type="line"/>
      <point x="447" y="628" type="line"/>
      <point x="440" y="592" type="line"/>
      <point x="630" y="592" type="line"/>
      <point x="591" y="409" type="line"/>
      <point x="564" y="490"/>
      <point x="496" y="529"/>
      <point x="413" y="529" type="curve" smooth="yes"/>
      <point x="248" y="529"/>
      <point x="117" y="349"/>
      <point x="117" y="194" type="curve" smooth="yes"/>
      <point x="117" y="87"/>
      <point x="184" y="-12"/>
      <point x="299" y="-12" type="curve" smooth="yes"/>
      <point x="390" y="-12"/>
      <point x="474" y="36"/>
      <point x="529" y="108" type="curve"/>
      <point x="506" y="0" type="line"/>
      <point x="542" y="0" type="line"/>
      <point x="666" y="592" type="line"/>
      <point x="730" y="592" type="line"/>
      <point x="737" y="628" type="line"/>
      <point x="673" y="628" type="line"/>
    </contour>
    <contour>
      <point x="314" y="24" type="curve" smooth="yes"/>
      <point x="214" y="24"/>
      <point x="154" y="108"/>
      <point x="154" y="203" type="curve" smooth="yes"/>
      <point x="154" y="339"/>
      <point x="268" y="493"/>
      <point x="412" y="493" type="curve" smooth="yes"/>
      <point x="513" y="493"/>
      <point x="568" y="420"/>
      <point x="568" y="324" type="curve" smooth="yes"/>
      <point x="568" y="183"/>
      <point x="468" y="24"/>
    </contour>
  </outline>
</glyph>
<glyph name="eight.tf" format="2">
  <advance width="700"/>
  <outline>
    <contour>
      <point x="296" y="-12" type="curve" smooth="yes"/>
      <point x="424" y="-12"/>
      <point x="565" y="85"/>
      <point x="565" y="205" type="curve" smooth="yes"/>
      <point x="565" y="272"/>
      <point x="520" y="331"/>
      <point x="449" y="353" type="curve"/>
      <point x="546" y="383"/>
      <point x="619" y="467"/>
      <point x="619" y="547" type="curve" smooth="yes"/>
      <point x="619" y="632"/>
      <point x="543" y="699"/>
      <point x="438" y="699" type="curve" smooth="yes"/>
      <point x="312" y="699"/>
      <point x="190" y="601"/>
      <point x="190" y="493" type="curve" smooth="yes"/>
      <point x="190" y="432"/>
      <point x="230" y="377"/>
      <point x="290" y="355" type="curve"/>
      <point x="194" y="328"/>
      <point x="101" y="247"/>
      <point x="101" y="148" type="curve" smooth="yes"/>
      <point x="101" y="58"/>
      <point x="183" y="-12"/>
    </contour>
    <contour>
      <point x="298" y="24" type="curve" smooth="yes"/>
      <point x="204" y="24"/>
      <point x="137" y="81"/>
      <point x="137" y="152" type="curve" smooth="yes"/>
      <point x="137" y="254"/>
      <point x="248" y="328"/>
      <point x="367" y="331" type="curve"/>
      <point x="467" y="328"/>
      <point x="530" y="279"/>
      <point x="530" y="209" type="curve" smooth="yes"/>
      <point x="530" y="112"/>
      <point x="415" y="24"/>
    </contour>
    <contour>
      <point x="370" y="373" type="curve"/>
      <point x="281" y="378"/>
      <point x="224" y="425"/>
      <point x="224" y="489" type="curve" smooth="yes"/>
      <point x="224" y="581"/>
      <point x="331" y="663"/>
      <point x="436" y="663" type="curve" smooth="yes"/>
      <point x="521" y="663"/>
      <point x="583" y="610"/>
      <point x="583" y="543" type="curve" smooth="yes"/>
      <point x="583" y="450"/>
      <point x="481" y="379"/>
    </contour>
  </outline>
</glyph>
<glyph name="four.tf" format="2">
  <advance width="700"/>
  <outline>
    <contour>
      <point x="433" y="0" type="line"/>
      <point x="472" y="185" type="line"/>
      <point x="586" y="185" type="line"/>
      <point x="593" y="221" type="line"/>
      <point x="479" y="221" type="line"/>
      <point x="576" y="687" type="line"/>
      <point x="526" y="687" type="line"/>
      <point x="90" y="222" type="line"/>
      <point x="89" y="185" type="line"/>
      <point x="436" y="185" type="line"/>
      <point x="397" y="0" type="line"/>
    </contour>
    <contour>
      <point x="532" y="644" type="line"/>
      <point x="443" y="221" type="line"/>
      <point x="136" y="221" type="line"/>
    </contour>
  </outline>
</glyph>
<glyph name="greater.tf" format="2">
  <advance width="700"/>
  <outline>
    <contour>
      <point x="592" y="322" type="line"/>
      <point x="600" y="366" type="line"/>
      <point x="191" y="586" type="line"/>
      <point x="182" y="542" type="line"/>
      <point x="549" y="344" type="line"/>
      <point x="100" y="146" type="line"/>
      <point x="91" y="102" type="line"/>
    </contour>
  </outline>
</glyph>
<glyph name="multiply.tf" format="2">
  <advance width="700"/>
  <outline>
    <contour>
      <point x="572" y="484" type="line"/>
      <point x="550" y="509" type="line"/>
      <point x="160" y="185" type="line"/>
      <point x="181" y="159" type="line"/>
    </contour>
    <contour>
      <point x="509" y="185" type="line"/>
      <point x="251" y="509" type="line"/>
      <point x="221" y="484" type="line"/>
      <point x="480" y="159" type="line"/>
    </contour>
  </outline>
</glyph>
<glyph name="one.tf" format="2">
  <advance width="700"/>
  <outline>
    <contour>
      <point x="389" y="0" type="line"/>
      <point x="532" y="687" type="line"/>
      <point x="503" y="687" type="line"/>
      <point x="298" y="572" type="line"/>
      <point x="311" y="542" type="line"/>
      <point x="487" y="640" type="line"/>
      <point x="353" y="0" type="line"/>
    </contour>
  </outline>
</glyph>
<glyph name="period.tf" format="2">
  <advance width="315"/>
  <outline>
    <contour>
      <point x="105" y="-12" type="curve" smooth="yes"/>
      <point x="121" y="-12"/>
      <point x="137" y="4"/>
      <point x="137" y="22" type="curve" smooth="yes"/>
      <point x="137" y="36"/>
      <point x="127" y="48"/>
      <point x="111" y="48" type="curve" smooth="yes"/>
      <point x="92" y="48"/>
      <point x="77" y="29"/>
      <point x="77" y="14" type="curve" smooth="yes"/>
      <point x="77" y="-1"/>
      <point x="88" y="-12"/>
    </contour>
  </outline>
</glyph>
<glyph name="plus.tf" format="2">
  <advance width="700"/>
  <outline>
    <contour>
      <point x="591" y="316" type="line"/>
      <point x="599" y="352" type="line"/>
      <point x="140" y="352" type="line"/>
      <point x="132" y="316" type="line"/>
    </contour>
    <contour>
      <point x="336" y="105" type="line"/>
      <point x="432" y="564" type="line"/>
      <point x="396" y="564" type="line"/>
      <point x="300" y="105" type="line"/>
    </contour>
  </outline>
</glyph>
<glyph name="two.tf" format="2">
  <advance width="700"/>
  <outline>
    <contour>
      <point x="528" y="0" type="line"/>
      <point x="536" y="36" type="line"/>
      <point x="122" y="36" type="line"/>
      <point x="406" y="240" type="line" smooth="yes"/>
      <point x="520" y="323"/>
      <point x="618" y="425"/>
      <point x="618" y="538" type="curve" smooth="yes"/>
      <point x="618" y="626"/>
      <point x="555" y="699"/>
      <point x="446" y="699" type="curve" smooth="yes"/>
      <point x="365" y="699"/>
      <point x="269" y="659"/>
      <point x="188" y="568" type="curve"/>
      <point x="213" y="544" type="line"/>
      <point x="285" y="623"/>
      <point x="371" y="665"/>
      <point x="447" y="665" type="curve" smooth="yes"/>
      <point x="535" y="665"/>
      <point x="582" y="604"/>
      <point x="582" y="535" type="curve" smooth="yes"/>
      <point x="582" y="436"/>
      <point x="491" y="346"/>
      <point x="386" y="269" type="curve" smooth="yes"/>
      <point x="72" y="39" type="line"/>
      <point x="64" y="0" type="line"/>
    </contour>
  </outline>
</glyph>
<glyph name="yen.tf" format="2">
  <advance width="700"/>
  <anchor x="436" y="687" name="top"/>
  <outline>
    <contour>
      <point x="548" y="131" type="line"/>
      <point x="555" y="167" type="line"/>
      <point x="99" y="167" type="line"/>
      <point x="92" y="131" type="line"/>
    </contour>
    <contour>
      <point x="578" y="278" type="line"/>
      <point x="586" y="314" type="line"/>
      <point x="130" y="314" type="line"/>
      <point x="122" y="278" type="line"/>
    </contour>
    <contour>
      <point x="313" y="0" type="line"/>
      <point x="372" y="279" type="line"/>
      <point x="737" y="687" type="line"/>
      <point x="690" y="687" type="line"/>
      <point x="358" y="317" type="line"/>
      <point x="181" y="687" type="line"/>
      <point x="141" y="687" type="line"/>
      <point x="336" y="279" type="line"/>
      <point x="277" y="0" type="line"/>
    </contour>
  </outline>
</glyph>
